<svg xmlns="http://www.w3.org/2000/svg" viewBox="0 0 24 24" fill="currentColor"><path d="M16.509 16.516c.196-.672.064-1.292-.364-1.708-.4-.388-.98-.604-1.636-.636l-8.22-.108c-.064 0-.12-.032-.148-.088a.182.182 0 0 1 0-.172.205.205 0 0 1 .164-.108l8.316-.108c1.46-.072 3.044-1.248 3.564-2.644l.66-1.768a.334.334 0 0 0 .016-.14C19.88 5.14 16.32 2 12 2 8.152 2 4.888 4.468 3.78 7.932c-.756-.576-1.68-.86-2.668-.756C.04 8.272-.736 9.4-.944 10.472c-.108.56-.076 1.108.072 1.596C-3.08 12.1-4.68 13.96-4.68 16.204c0 .208.016.412.04.616a.17.17 0 0 0 .164.14h20.408c.08 0 .148-.052.172-.128l.404-1.316z" transform="translate(4.68 1.52)"/></svg>