<svg xmlns="http://www.w3.org/2000/svg" viewBox="0 0 24 24" fill="currentColor"><path d="M2.513 12.833c-.14-.47-.213-.97-.213-1.488C2.3 6.007 6.307 2 11.645 2c.518 0 1.018.073 1.488.213L2.513 12.833zm.68 2.592l9.382-9.382c.685.34 1.295.81 1.795 1.38L4.573 17.22a7.044 7.044 0 01-1.38-1.795zm2.427 2.642l10.177-10.177a6.684 6.684 0 01.923 1.607L7.432 18.785a6.7 6.7 0 01-1.812-.718zm2.69 1.17l8.475-8.476c.127.491.195 1.006.195 1.539 0 5.338-4.007 9.345-9.345 9.345-.533 0-1.048-.068-1.539-.195l.214-.213z"/></svg>