<svg xmlns="http://www.w3.org/2000/svg" viewBox="0 0 24 24" fill="currentColor"><path d="M.113 14.669a.946.946 0 0 0-.1.424c0 .088.012.175.035.26l.022.063.228.535c.068.152.14.302.214.45l.082.158.096.176.084.148c.042.072.085.143.129.214l.03.049c.164.26.342.513.533.755l.084.104.098.119.15.176.068.076.149.162.084.088.13.133.095.095.129.124.095.088.133.12.098.085.138.116.098.08.143.112.095.072.166.121.054.037c.265.183.543.35.833.499l.068.033.311.153.037.017a9.404 9.404 0 0 0 1.723.596l.065.014.162.035.137.026.157.028.147.023.152.02.157.018.147.015.165.013.144.008.172.008.14.004.2.002h.12l.184-.004.133-.005.162-.009.138-.01.155-.015.14-.016.15-.02.14-.021.146-.025.14-.028.14-.03.14-.032.138-.035.137-.037.133-.04.137-.042.13-.043.133-.049.127-.049.13-.054.124-.054.127-.058.12-.058.123-.063.117-.063.12-.065.114-.065.117-.07.11-.068.114-.072.108-.072.11-.075.105-.075.108-.078.102-.078.105-.08.098-.082.102-.084.098-.084.098-.088.095-.088.095-.088.091-.091.098-.098h.004a.946.946 0 0 0 .268-.66v-.002a.946.946 0 0 0-.282-.672L13.895 13H.466c-.136.05-.257.138-.353.268zm10.282-3.946H.004c.002.282.014.561.038.837l.012.119.015.133.024.178.023.14.02.107c.01.054.02.105.031.157l.035.16.021.082c.026.107.054.213.084.318l.019.062H12.57a.947.947 0 0 0 .668-.273l1.747-1.729a.946.946 0 0 0 .005-1.34l-1.752-1.76a.946.946 0 0 0-.672-.28h-1.63c-.228.367-.438.748-.63 1.142l-.028.06-.059.133-.05.119-.053.133-.043.112-.049.133-.038.11-.044.133-.035.112-.04.133-.031.11-.035.133-.028.112-.031.133-.024.112-.028.133-.02.113-.023.133-.018.114-.019.133-.013.112-.016.133-.01.114-.012.133-.007.112-.008.133-.005.116-.004.11v.116zm7.063-5.86a9.54 9.54 0 0 0-3.202-3.202c-.32-.2-.65-.383-.99-.549l-.11-.052c-.107-.05-.214-.1-.323-.145l-.095-.04-.248-.098-.12-.044-.223-.08-.123-.041-.222-.07-.12-.035-.226-.06-.117-.03-.236-.055-.107-.024-.267-.051-.051-.009a9.378 9.378 0 0 0-.837-.103l-.072-.006-.203-.013-.126-.005-.128-.004-.194-.003h-.07a9.3 9.3 0 0 0-.94.049l-.1.011c-.242.028-.481.066-.717.113l-.114.024-.165.037-.167.041-.153.041-.162.047-.145.044-.158.05-.14.047-.154.056-.135.051-.15.06-.13.054-.145.063-.126.056-.14.066-.123.06-.137.07-.12.062-.133.072-.116.065-.13.075-.112.068-.127.078-.108.07-.124.082-.104.072-.12.084-.1.075-.117.088-.098.077-.114.091-.095.08-.11.094-.09.082-.108.098-.088.082-.109.106h-.002l-.002.001a.946.946 0 0 0-.273.663v.002a.946.946 0 0 0 .282.673l2.855 2.867a.946.946 0 0 0 .672.28h3.86c.207-.404.432-.797.674-1.176l.066-.1.1-.148.082-.117.1-.14.088-.117.104-.135.091-.114.108-.13.093-.11.113-.127.095-.105.116-.123.098-.102.119-.119.1-.098.12-.114.103-.095.124-.11.104-.09.126-.105.107-.086.127-.1.108-.082.13-.096.11-.078.13-.09.112-.075.132-.086.113-.071.133-.08.114-.067.135-.077.114-.063.14-.074.11-.056.15-.074.094-.044.195-.089z"/></svg>