<svg xmlns="http://www.w3.org/2000/svg" viewBox="0 0 24 24" fill="currentColor"><path d="M18.806 5.143L12 1.5 5.194 5.143l-.694.357v1.714L3 8.357v7.286l1.5 1.143v2.571L6 20.5l1.5-.857 1.5.857 1.5-.857 1.5.857 1.5-.857 1.5.857 1.5-.857 1.5.857L18 20.5l1.5-1.143v-2.571L21 15.643V8.357L19.5 7.214V5.5l-.694-.357zM18 17.714l-1.5.857-1.5-.857-1.5.857-1.5-.857-1.5.857-1.5-.857-1.5.857-1.5-.857v-2.285L5 14.5v-4.857L6.5 8.5V6.571L12 3.714l5.5 2.857V8.5l1.5 1.143V14.5l-1.5.929v2.285zm-3-7.214v3.857h-1.5V10.5H9v3.857H7.5V10.5L12 7.929l4.5 2.571z"/></svg>